<svg id="svg" version="1.1" xmlns="http://www.w3.org/2000/svg" xmlns:xlink="http://www.w3.org/1999/xlink" width="400" height="400" viewBox="0, 0, 400,400"><g id="svgg"><path id="path0" d="M192.125 83.646 C 191.713 83.701,189.969 83.869,188.250 84.020 C 122.197 89.817,74.105 152.820,85.029 219.244 C 95.472 282.751,156.149 325.733,220.000 314.853 C 248.875 309.933,275.250 293.743,293.276 269.875 C 296.272 265.907,301.482 257.882,301.217 257.642 C 301.068 257.509,250.951 229.966,250.637 229.845 C 250.480 229.785,249.586 230.866,248.652 232.247 C 232.003 256.858,200.766 265.330,174.375 252.391 C 138.405 234.757,130.449 186.928,158.793 158.722 C 184.834 132.809,227.656 136.967,248.426 167.426 C 249.703 169.298,249.871 169.453,250.350 169.200 C 251.927 168.367,299.912 140.912,300.102 140.734 C 300.378 140.475,297.450 135.797,294.314 131.482 C 275.078 105.023,245.957 88.054,213.000 84.101 C 209.832 83.721,194.142 83.379,192.125 83.646 M258.500 183.375 L 258.500 191.750 250.125 191.750 L 241.750 191.750 241.750 200.000 L 241.750 208.250 250.125 208.250 L 258.500 208.250 258.500 216.625 L 258.500 225.000 266.750 225.000 L 275.000 225.000 275.000 216.625 L 275.000 208.250 283.250 208.250 L 291.500 208.250 291.500 200.000 L 291.500 191.750 283.250 191.750 L 275.000 191.750 275.000 183.375 L 275.000 175.000 266.750 175.000 L 258.500 175.000 258.500 183.375 M316.750 183.375 L 316.750 191.750 308.375 191.750 L 300.000 191.750 300.000 200.000 L 300.000 208.250 308.375 208.250 L 316.750 208.250 316.750 216.625 L 316.750 225.000 325.000 225.000 L 333.250 225.000 333.250 216.625 L 333.250 208.250 341.625 208.250 L 350.000 208.250 350.000 200.000 L 350.000 191.750 341.625 191.750 L 333.250 191.750 333.250 183.375 L 333.250 175.000 325.000 175.000 L 316.750 175.000 316.750 183.375 " stroke="none" fill="#fbfbfb" fill-rule="evenodd"></path><path id="path1" d="M358.188 190.625 C 358.223 230.500,358.281 266.894,358.317 271.500 C 358.353 276.106,358.397 244.100,358.416 200.375 C 358.435 156.650,358.377 120.256,358.288 119.500 C 358.198 118.744,358.153 150.750,358.188 190.625 M248.938 169.893 C 248.003 170.400,248.060 170.611,249.000 170.125 C 249.412 169.912,249.750 169.684,249.750 169.619 C 249.750 169.458,249.723 169.467,248.938 169.893 M247.188 170.893 C 246.253 171.400,246.310 171.611,247.250 171.125 C 247.662 170.912,248.000 170.684,248.000 170.619 C 248.000 170.458,247.973 170.467,247.188 170.893 M245.438 171.893 C 244.503 172.400,244.560 172.611,245.500 172.125 C 245.912 171.912,246.250 171.684,246.250 171.619 C 246.250 171.458,246.223 171.467,245.438 171.893 M243.688 172.893 C 242.753 173.400,242.810 173.611,243.750 173.125 C 244.162 172.912,244.500 172.684,244.500 172.619 C 244.500 172.458,244.473 172.467,243.688 172.893 M241.938 173.893 C 241.003 174.400,241.060 174.611,242.000 174.125 C 242.412 173.912,242.750 173.684,242.750 173.619 C 242.750 173.458,242.723 173.467,241.938 173.893 M240.188 174.893 C 239.253 175.400,239.310 175.611,240.250 175.125 C 240.662 174.912,241.000 174.684,241.000 174.619 C 241.000 174.458,240.973 174.467,240.188 174.893 M238.438 175.893 C 237.503 176.400,237.560 176.611,238.500 176.125 C 238.912 175.912,239.250 175.684,239.250 175.619 C 239.250 175.458,239.223 175.467,238.438 175.893 M236.688 176.893 C 235.753 177.400,235.810 177.611,236.750 177.125 C 237.162 176.912,237.500 176.684,237.500 176.619 C 237.500 176.458,237.473 176.467,236.688 176.893 M234.938 177.893 C 234.003 178.400,234.060 178.611,235.000 178.125 C 235.412 177.912,235.750 177.684,235.750 177.619 C 235.750 177.458,235.723 177.467,234.938 177.893 M233.188 178.893 C 232.253 179.400,232.310 179.611,233.250 179.125 C 233.662 178.912,234.000 178.684,234.000 178.619 C 234.000 178.458,233.973 178.467,233.188 178.893 M231.438 179.893 C 230.503 180.400,230.560 180.611,231.500 180.125 C 231.912 179.912,232.250 179.684,232.250 179.619 C 232.250 179.458,232.223 179.467,231.438 179.893 M229.688 180.893 C 228.753 181.400,228.810 181.611,229.750 181.125 C 230.162 180.912,230.500 180.684,230.500 180.619 C 230.500 180.458,230.473 180.467,229.688 180.893 M227.938 181.893 C 227.003 182.400,227.060 182.611,228.000 182.125 C 228.412 181.912,228.750 181.684,228.750 181.619 C 228.750 181.458,228.723 181.467,227.938 181.893 M226.188 182.893 C 225.253 183.400,225.310 183.611,226.250 183.125 C 226.662 182.912,227.000 182.684,227.000 182.619 C 227.000 182.458,226.973 182.467,226.188 182.893 M187.021 205.245 C 166.064 217.201,148.828 227.072,148.720 227.180 C 148.611 227.289,149.220 228.533,150.074 229.944 C 169.449 261.995,213.049 267.823,240.321 242.008 C 244.708 237.856,250.638 229.918,249.813 229.304 C 249.576 229.128,237.596 222.502,223.191 214.581 C 208.786 206.659,197.000 200.097,197.000 199.998 C 197.000 199.899,203.272 196.242,210.938 191.872 C 223.640 184.631,225.583 183.494,225.238 183.503 C 225.176 183.505,207.978 193.288,187.021 205.245 M71.236 271.288 C 56.737 279.558,44.687 286.376,44.456 286.437 C 44.160 286.516,43.808 286.157,43.251 285.212 C 42.231 283.478,42.546 284.623,43.699 286.840 C 44.869 289.090,47.790 292.181,50.085 293.597 C 53.286 295.573,190.572 372.557,192.375 373.387 C 197.069 375.550,202.931 375.550,207.625 373.387 C 209.428 372.557,346.714 295.573,349.915 293.597 C 354.178 290.966,358.338 284.609,358.236 280.880 C 358.229 280.602,358.002 281.219,357.732 282.250 C 357.463 283.281,356.878 284.878,356.434 285.798 L 355.625 287.470 328.649 272.619 C 313.812 264.451,301.592 257.818,301.493 257.879 C 301.394 257.941,300.829 258.809,300.238 259.808 C 279.583 294.754,240.944 316.721,200.082 316.748 C 158.616 316.775,119.680 294.356,99.020 258.558 C 98.287 257.289,97.667 256.250,97.642 256.250 C 97.618 256.250,85.735 263.017,71.236 271.288 " stroke="none" fill="#04549c" fill-rule="evenodd"></path><path id="path2" d="M195.500 25.370 C 194.606 25.567,193.256 25.980,192.500 26.287 C 190.974 26.909,50.949 105.245,49.139 106.491 C 45.790 108.795,43.237 112.500,42.071 116.750 C 41.381 119.264,41.377 279.727,42.067 282.224 C 42.551 283.976,43.684 286.240,44.170 286.427 C 44.340 286.492,56.447 279.720,71.074 271.378 L 97.670 256.210 95.944 252.854 C 77.075 216.160,79.484 171.239,102.191 136.375 C 142.658 74.244,230.084 65.094,282.495 117.505 C 288.939 123.948,297.337 134.689,300.205 140.156 C 300.471 140.662,299.259 141.387,275.180 155.144 C 247.536 170.937,247.899 170.732,248.610 170.148 C 248.877 169.929,249.187 169.750,249.298 169.750 C 250.922 169.750,242.762 159.855,237.500 155.443 C 195.769 120.457,132.777 157.229,142.758 210.750 C 144.126 218.086,147.856 227.667,149.051 226.915 C 151.630 225.292,225.512 183.305,225.125 183.683 C 224.988 183.817,218.600 187.504,210.930 191.877 C 203.260 196.249,197.016 199.921,197.055 200.036 C 197.093 200.150,209.106 206.832,223.750 214.885 C 238.394 222.937,261.867 235.848,275.914 243.575 C 289.960 251.302,301.390 257.726,301.313 257.851 C 301.236 257.975,301.285 258.008,301.423 257.923 C 301.561 257.838,313.812 264.451,328.649 272.619 L 355.625 287.470 356.434 285.798 C 358.443 281.644,358.269 290.320,358.175 199.242 C 358.100 126.811,358.051 118.198,357.699 116.675 C 357.200 114.516,355.950 111.967,354.852 110.869 C 354.384 110.400,354.000 109.919,354.000 109.799 C 354.000 109.422,350.678 106.391,349.375 105.579 C 347.690 104.530,210.859 28.157,208.568 26.986 C 205.098 25.214,199.402 24.510,195.500 25.370 M248.000 170.619 C 248.000 170.684,247.662 170.912,247.250 171.125 C 246.310 171.611,246.253 171.400,247.188 170.893 C 247.973 170.467,248.000 170.458,248.000 170.619 M246.250 171.619 C 246.250 171.684,245.912 171.912,245.500 172.125 C 244.560 172.611,244.503 172.400,245.438 171.893 C 246.223 171.467,246.250 171.458,246.250 171.619 M244.500 172.619 C 244.500 172.684,244.162 172.912,243.750 173.125 C 242.810 173.611,242.753 173.400,243.688 172.893 C 244.473 172.467,244.500 172.458,244.500 172.619 M242.750 173.619 C 242.750 173.684,242.412 173.912,242.000 174.125 C 241.060 174.611,241.003 174.400,241.938 173.893 C 242.723 173.467,242.750 173.458,242.750 173.619 M241.000 174.619 C 241.000 174.684,240.662 174.912,240.250 175.125 C 239.310 175.611,239.253 175.400,240.188 174.893 C 240.973 174.467,241.000 174.458,241.000 174.619 M275.000 183.247 L 275.000 191.493 283.313 191.559 L 291.625 191.625 291.625 200.000 L 291.625 208.375 283.313 208.441 L 275.000 208.507 275.000 216.753 L 275.000 225.000 266.625 225.000 L 258.250 225.000 258.250 216.753 L 258.250 208.507 249.938 208.441 L 241.625 208.375 241.625 200.000 L 241.625 191.625 249.938 191.559 L 258.250 191.493 258.250 183.247 L 258.250 175.000 266.625 175.000 L 275.000 175.000 275.000 183.247 M333.500 183.250 L 333.500 191.500 341.750 191.500 L 350.000 191.500 350.000 200.000 L 350.000 208.500 341.750 208.500 L 333.500 208.500 333.500 216.750 L 333.500 225.000 325.000 225.000 L 316.500 225.000 316.500 216.750 L 316.500 208.500 308.250 208.500 L 300.000 208.500 300.000 200.000 L 300.000 191.500 308.250 191.500 L 316.500 191.500 316.500 183.250 L 316.500 175.000 325.000 175.000 L 333.500 175.000 333.500 183.250 M239.250 175.619 C 239.250 175.684,238.912 175.912,238.500 176.125 C 237.560 176.611,237.503 176.400,238.438 175.893 C 239.223 175.467,239.250 175.458,239.250 175.619 M237.500 176.619 C 237.500 176.684,237.162 176.912,236.750 177.125 C 235.810 177.611,235.753 177.400,236.688 176.893 C 237.473 176.467,237.500 176.458,237.500 176.619 M235.750 177.619 C 235.750 177.684,235.412 177.912,235.000 178.125 C 234.060 178.611,234.003 178.400,234.938 177.893 C 235.723 177.467,235.750 177.458,235.750 177.619 M234.000 178.619 C 234.000 178.684,233.662 178.912,233.250 179.125 C 232.310 179.611,232.253 179.400,233.188 178.893 C 233.973 178.467,234.000 178.458,234.000 178.619 M232.250 179.619 C 232.250 179.684,231.912 179.912,231.500 180.125 C 230.560 180.611,230.503 180.400,231.438 179.893 C 232.223 179.467,232.250 179.458,232.250 179.619 M230.500 180.619 C 230.500 180.684,230.162 180.912,229.750 181.125 C 228.810 181.611,228.753 181.400,229.688 180.893 C 230.473 180.467,230.500 180.458,230.500 180.619 M228.750 181.619 C 228.750 181.684,228.412 181.912,228.000 182.125 C 227.060 182.611,227.003 182.400,227.938 181.893 C 228.723 181.467,228.750 181.458,228.750 181.619 M227.000 182.619 C 227.000 182.684,226.662 182.912,226.250 183.125 C 225.310 183.611,225.253 183.400,226.188 182.893 C 226.973 182.467,227.000 182.458,227.000 182.619 M283.859 281.063 L 283.125 281.875 283.938 281.141 C 284.695 280.456,284.865 280.250,284.672 280.250 C 284.629 280.250,284.263 280.616,283.859 281.063 " stroke="none" fill="#0484cc" fill-rule="evenodd"></path><path id="path3" d="M316.559 183.184 L 316.500 191.493 308.188 191.563 L 299.875 191.632 308.195 191.691 C 314.693 191.737,316.542 191.681,316.636 191.435 C 316.703 191.262,316.726 187.466,316.687 182.998 L 316.618 174.875 316.559 183.184 M333.370 183.250 L 333.375 191.625 341.750 191.630 L 350.125 191.635 341.816 191.564 L 333.507 191.493 333.436 183.184 L 333.365 174.875 333.370 183.250 M241.614 191.815 C 241.547 191.988,241.523 195.784,241.559 200.252 L 241.625 208.375 249.875 208.380 L 258.125 208.385 249.938 208.314 L 241.750 208.243 241.750 200.000 L 241.750 191.757 250.063 191.687 L 258.375 191.618 250.055 191.559 C 243.557 191.513,241.708 191.569,241.614 191.815 M279.063 191.687 C 281.366 191.728,285.134 191.728,287.438 191.687 C 289.741 191.646,287.856 191.612,283.250 191.612 C 278.644 191.612,276.759 191.646,279.063 191.687 M279.063 208.437 C 281.366 208.478,285.134 208.478,287.438 208.437 C 289.741 208.396,287.856 208.362,283.250 208.362 C 278.644 208.362,276.759 208.396,279.063 208.437 M308.184 208.436 L 316.493 208.507 316.564 216.816 L 316.635 225.125 316.630 216.750 L 316.625 208.375 308.250 208.370 L 299.875 208.365 308.184 208.436 M333.364 208.565 C 333.297 208.738,333.274 212.534,333.313 217.002 L 333.382 225.125 333.441 216.816 L 333.500 208.507 341.813 208.437 L 350.125 208.368 341.805 208.309 C 335.307 208.263,333.458 208.319,333.364 208.565 M117.375 282.500 C 117.912 283.050,118.408 283.500,118.476 283.500 C 118.545 283.500,118.162 283.050,117.625 282.500 C 117.088 281.950,116.592 281.500,116.524 281.500 C 116.455 281.500,116.838 281.950,117.375 282.500 M282.237 282.688 L 281.375 283.625 282.313 282.763 C 282.828 282.290,283.250 281.868,283.250 281.826 C 283.250 281.635,283.038 281.815,282.237 282.688 M196.444 316.683 C 197.032 316.736,197.932 316.735,198.444 316.682 C 198.956 316.628,198.475 316.585,197.375 316.586 C 196.275 316.587,195.856 316.631,196.444 316.683 M201.694 316.683 C 202.282 316.736,203.182 316.735,203.694 316.682 C 204.206 316.628,203.725 316.585,202.625 316.586 C 201.525 316.587,201.106 316.631,201.694 316.683 " stroke="none" fill="#5da7d7" fill-rule="evenodd"></path><path id="path4" d="M197.813 83.436 C 199.016 83.482,200.984 83.482,202.188 83.436 C 203.391 83.390,202.406 83.353,200.000 83.353 C 197.594 83.353,196.609 83.390,197.813 83.436 M191.440 83.677 C 191.751 83.737,192.201 83.734,192.440 83.672 C 192.679 83.609,192.425 83.560,191.875 83.563 C 191.325 83.566,191.129 83.617,191.440 83.677 M207.690 83.677 C 208.001 83.737,208.451 83.734,208.690 83.672 C 208.929 83.609,208.675 83.560,208.125 83.563 C 207.575 83.566,207.379 83.617,207.690 83.677 M277.750 113.078 C 277.750 113.121,278.116 113.487,278.563 113.891 L 279.375 114.625 278.641 113.813 C 277.956 113.055,277.750 112.885,277.750 113.078 M285.500 120.828 C 285.500 120.871,285.866 121.237,286.313 121.641 L 287.125 122.375 286.391 121.563 C 285.706 120.805,285.500 120.635,285.500 120.828 M199.188 141.681 C 199.634 141.736,200.366 141.736,200.813 141.681 C 201.259 141.625,200.894 141.580,200.000 141.580 C 199.106 141.580,198.741 141.625,199.188 141.681 M158.500 158.875 C 157.893 159.494,157.452 160.000,157.521 160.000 C 157.590 160.000,158.143 159.494,158.750 158.875 C 159.357 158.256,159.798 157.750,159.729 157.750 C 159.660 157.750,159.107 158.256,158.500 158.875 M241.125 158.750 C 241.662 159.300,242.158 159.750,242.226 159.750 C 242.295 159.750,241.912 159.300,241.375 158.750 C 240.838 158.200,240.342 157.750,240.274 157.750 C 240.205 157.750,240.588 158.200,241.125 158.750 M258.362 183.375 C 258.362 188.050,258.396 189.927,258.437 187.546 C 258.478 185.166,258.478 181.341,258.437 179.046 C 258.396 176.752,258.362 178.700,258.362 183.375 M83.563 191.875 C 83.566 192.425,83.617 192.621,83.677 192.310 C 83.737 191.999,83.734 191.549,83.672 191.310 C 83.609 191.071,83.560 191.325,83.563 191.875 M291.612 200.000 C 291.612 204.606,291.646 206.491,291.687 204.188 C 291.728 201.884,291.728 198.116,291.687 195.813 C 291.646 193.509,291.612 195.394,291.612 200.000 M83.353 200.000 C 83.353 202.406,83.390 203.391,83.436 202.188 C 83.482 200.984,83.482 199.016,83.436 197.813 C 83.390 196.609,83.353 197.594,83.353 200.000 M141.580 200.000 C 141.580 200.894,141.625 201.259,141.681 200.813 C 141.736 200.366,141.736 199.634,141.681 199.188 C 141.625 198.741,141.580 199.106,141.580 200.000 M83.563 208.125 C 83.566 208.675,83.617 208.871,83.677 208.560 C 83.737 208.249,83.734 207.799,83.672 207.560 C 83.609 207.321,83.560 207.575,83.563 208.125 M258.362 216.625 C 258.362 221.300,258.396 223.177,258.437 220.796 C 258.478 218.416,258.478 214.591,258.437 212.296 C 258.396 210.002,258.362 211.950,258.362 216.625 M157.000 239.578 C 157.000 239.621,157.366 239.987,157.813 240.391 L 158.625 241.125 157.891 240.313 C 157.206 239.555,157.000 239.385,157.000 239.578 M242.109 240.313 L 241.375 241.125 242.188 240.391 C 242.634 239.987,243.000 239.621,243.000 239.578 C 243.000 239.385,242.794 239.555,242.109 240.313 M159.000 241.578 C 159.000 241.621,159.366 241.987,159.813 242.391 L 160.625 243.125 159.891 242.313 C 159.206 241.555,159.000 241.385,159.000 241.578 M240.109 242.313 L 239.375 243.125 240.188 242.391 C 240.634 241.987,241.000 241.621,241.000 241.578 C 241.000 241.385,240.794 241.555,240.109 242.313 M198.938 258.433 C 199.522 258.486,200.478 258.486,201.063 258.433 C 201.647 258.380,201.169 258.337,200.000 258.337 C 198.831 258.337,198.353 258.380,198.938 258.433 M199.563 316.672 C 199.803 316.735,200.197 316.735,200.438 316.672 C 200.678 316.609,200.481 316.558,200.000 316.558 C 199.519 316.558,199.322 316.609,199.563 316.672 " stroke="none" fill="#7cc4ec" fill-rule="evenodd"></path></g></svg>